<svg xmlns="http://www.w3.org/2000/svg" viewBox="0 0 498.42 180"><defs><style>.cls-1{fill:#fff;}</style></defs><title>logo</title><g id="Layer_2" data-name="Layer 2"><g id="Layer_1-2" data-name="Layer 1"><path class="cls-1" d="M229.37,69.64h25.86V82.49H213.94v-65h15.43Z"/><path class="cls-1" d="M328.24,17.49V58q0,9.81-2.24,14.59t-8.26,7.86q-6,3.08-15.41,3.07t-14.92-2.76a18.53,18.53,0,0,1-8.31-7.86q-2.78-5.09-2.77-14.9V17.49h16.53V58a24.68,24.68,0,0,0,.88,7.71,7.24,7.24,0,0,0,3.52,3.93,13.32,13.32,0,0,0,6.5,1.45,14.91,14.91,0,0,0,7-1.42,7.22,7.22,0,0,0,3.57-3.79q.88-2.35.88-7.88V17.49Z"/><path class="cls-1" d="M405,17.49v65H392l-25.44-43.9c0,1.11.07,1.84.1,2.19a24.72,24.72,0,0,1,.19,2.81v38.9H355v-65h16.41l22.12,38.34c-.19-1.91-.29-3.35-.29-4.34v-34Z"/><path class="cls-1" d="M479.07,29.87H448.12V43.21h24.33V55.45H448.12V69.64h30.95V82.49H432.64v-65h46.43Z"/><path class="cls-1" d="M242.74,163.76l-16-53v53H213.94v-65h23.71l11.41,38.91,12-38.91h23.79v65H269.52v-53l-16.36,53Z"/><path class="cls-1" d="M349,98.76v40.48q0,9.81-2.24,14.59t-8.26,7.86q-6,3.08-15.41,3.07T308.21,162a18.53,18.53,0,0,1-8.31-7.86q-2.77-5.08-2.77-14.9V98.76h16.53v40.48a24.68,24.68,0,0,0,.88,7.71,7.24,7.24,0,0,0,3.52,3.93,13.32,13.32,0,0,0,6.5,1.45,14.91,14.91,0,0,0,7-1.42,7.22,7.22,0,0,0,3.57-3.79q.88-2.35.88-7.88V98.76Z"/><path class="cls-1" d="M406,113.05l-13,4.33q-2.62-7.71-11.07-7.71-9,0-9,5.85a5.26,5.26,0,0,0,1.69,4c1.12,1.08,3.67,2,7.63,2.81q9.94,2,14.55,4a18.6,18.6,0,0,1,7.78,6.6,17.35,17.35,0,0,1,3.16,10.16A20.29,20.29,0,0,1,401,158.33q-6.78,6.43-20.1,6.43-10,0-17-4.55a21.58,21.58,0,0,1-9.25-13.5l14.09-3.19q2.38,9.1,13.21,9.1,5.24,0,7.8-2a6,6,0,0,0,2.56-4.84,5,5,0,0,0-2.33-4.43c-1.55-1-4.54-2-9-3q-12.42-2.58-17.69-7t-5.28-13a19.33,19.33,0,0,1,6.3-14.62q6.3-5.94,17.1-5.95Q400.57,97.76,406,113.05Z"/><path class="cls-1" d="M432.94,98.76v65H417.75v-65Z"/><path class="cls-1" d="M498.42,123l-15.95,1q-.35-13.76-10.74-13.76-11.93,0-11.93,21.19,0,12.24,3.24,16.6a10.68,10.68,0,0,0,9.07,4.35q9.45,0,11.55-12.28l14.76.9q-1.43,11.67-8.69,17.74t-17.79,6.07q-12.9,0-21-8.9t-8.07-24.62q0-14.72,7.81-24.1T472,97.76Q495.47,97.76,498.42,123Z"/><path class="cls-1" d="M122.8,47.7,72.45,60.47V73L122.8,60.22Z"/><path class="cls-1" d="M55.47,109a11.26,11.26,0,1,0,11.22,11.24A11.25,11.25,0,0,0,55.47,109Z"/><path class="cls-1" d="M90,0a90,90,0,1,0,90,90A90,90,0,0,0,90,0Zm38.48,106.67a16.92,16.92,0,1,1-20.7-16.59A16.37,16.37,0,0,1,122,93.2l.67.51s.06,0,.14,0V66.1l-10.83,2.74Q92.7,73.72,73.42,78.58A1.17,1.17,0,0,0,72.35,80q0,19.91,0,39.8A16.78,16.78,0,0,1,65.24,134c-10.1,7.42-24.94,1.06-26.57-11.37a16.84,16.84,0,0,1,13.34-19,16.39,16.39,0,0,1,13.81,3.2l.87.66v-1.26q0-24.54,0-49.07c0-.9.26-1.23,1.11-1.44q29.61-7.47,59.2-15a11.72,11.72,0,0,0,1.14-.38h.38C128.5,62.48,128.55,84.58,128.48,106.67Z"/><path class="cls-1" d="M111.42,95.29a11.28,11.28,0,1,0,11.4,10.91A11.26,11.26,0,0,0,111.42,95.29Z"/></g></g></svg>
